<?xml version="1.0" encoding="UTF-8" standalone="no"?>
<!-- Created with Inkscape (http://www.inkscape.org/) -->

<svg
   xmlns:dc="http://purl.org/dc/elements/1.1/"
   xmlns:cc="http://creativecommons.org/ns#"
   xmlns:rdf="http://www.w3.org/1999/02/22-rdf-syntax-ns#"
   xmlns:svg="http://www.w3.org/2000/svg"
   xmlns="http://www.w3.org/2000/svg"
   xmlns:sodipodi="http://sodipodi.sourceforge.net/DTD/sodipodi-0.dtd"
   xmlns:inkscape="http://www.inkscape.org/namespaces/inkscape"
   width="210mm"
   height="297mm"
   viewBox="0 0 210 297"
   version="1.1"
   id="svg8"
   inkscape:version="0.92.4 (5da689c313, 2019-01-14)"
   sodipodi:docname="shadow.svg">
  <defs
     id="defs2">
    <filter
       inkscape:collect="always"
       style="color-interpolation-filters:sRGB"
       id="filter997"
       x="-0.28104407"
       width="1.5620881"
       y="-0.66326401"
       height="2.326528">
      <feGaussianBlur
         inkscape:collect="always"
         stdDeviation="1.8465651"
         id="feGaussianBlur999" />
    </filter>
  </defs>
  <sodipodi:namedview
     id="base"
     pagecolor="#ffffff"
     bordercolor="#666666"
     borderopacity="1.0"
     inkscape:pageopacity="0.0"
     inkscape:pageshadow="2"
     inkscape:zoom="3.959798"
     inkscape:cx="85.150575"
     inkscape:cy="957.76562"
     inkscape:document-units="mm"
     inkscape:current-layer="layer1"
     showgrid="false"
     inkscape:window-width="1920"
     inkscape:window-height="1043"
     inkscape:window-x="1680"
     inkscape:window-y="0"
     inkscape:window-maximized="1"
     inkscape:snap-global="false" />
  <metadata
     id="metadata5">
    <rdf:RDF>
      <cc:Work
         rdf:about="">
        <dc:format>image/svg+xml</dc:format>
        <dc:type
           rdf:resource="http://purl.org/dc/dcmitype/StillImage" />
        <dc:title />
      </cc:Work>
    </rdf:RDF>
  </metadata>
  <g
     inkscape:label="Calque 1"
     inkscape:groupmode="layer"
     id="layer1">
    <path
       style="fill:#cccccc;stroke:none;stroke-width:0.26458332px;stroke-linecap:butt;stroke-linejoin:miter;stroke-opacity:1;fill-opacity:1"
       d="m 8.8380815,41.379081 c 0,0 0.4495345,-2.628265 0.9840735,-5.768681 0.534539,-3.140416 1.202713,-5.946746 2.271791,-7.082642 1.069078,-1.135896 7.951268,-1.670433 9.354433,-0.668173 1.403165,1.00226 2.204974,3.407685 1.403165,6.681737 -0.801808,3.274052 -2.24331,7.233962 -2.24331,7.233962 l -0.02848,1.118211 -1.202712,-1.737251 -0.26727,1.403165 -1.403165,-2.605879 -0.06682,1.469983 -1.80407,-1.670434 0.601357,1.269529 -0.668174,-0.133636 0.133635,0.868627 -0.467722,-0.668173 -1.135895,0.601356 -0.53454,-1.069078 -0.868625,1.336346 -0.668174,-1.403164 -1.469983,1.603618 -0.133634,-2.00452 -1.1358957,1.336347 z"
       id="path836"
       inkscape:connector-curvature="0" />
    <ellipse
       style="opacity:0.2;fill:#000000;fill-opacity:1;stroke:none;stroke-width:0.69337523;stroke-linecap:round;stroke-linejoin:round;stroke-miterlimit:4;stroke-dasharray:none;stroke-dashoffset:151.18110657;stroke-opacity:1;paint-order:markers fill stroke;filter:url(#filter997)"
       id="path815"
       cx="14.03165"
       cy="11.689779"
       rx="7.8844509"
       ry="3.3408689"
       transform="matrix(1,0,0,0.51999999,0,5.6110942)" />
    <rect
       style="opacity:0.45400002;fill:none;fill-opacity:1;stroke:none;stroke-width:0.5;stroke-linecap:round;stroke-linejoin:round;stroke-miterlimit:4;stroke-dasharray:none;stroke-dashoffset:151.18110657;stroke-opacity:1;paint-order:markers fill stroke"
       id="rect1001"
       width="26.192413"
       height="18.441597"
       x="1.3363476"
       y="2.2017109"
       inkscape:export-filename="/home/larzuk/hotbucket/git/PROJECTS/PRJ_larzukModernDefense_0320/code/epidemicJsToy/img/shadow.png"
       inkscape:export-xdpi="67.488693"
       inkscape:export-ydpi="67.488693" />
    <path
       style="opacity:1;fill:#aaff99;fill-opacity:1;stroke:none;stroke-width:1.88976383;stroke-linecap:round;stroke-linejoin:round;stroke-miterlimit:4;stroke-dasharray:none;stroke-dashoffset:151.18110657;stroke-opacity:1;paint-order:markers fill stroke"
       d="M 59.851562 150.24805 L 62.125 155.04688 L 59.599609 154.54102 L 60.103516 157.82422 L 58.335938 155.29883 L 54.042969 157.57227 L 52.023438 153.53125 L 48.740234 158.58203 L 46.214844 153.27734 L 40.658203 159.33984 L 40.154297 151.76367 L 35.861328 156.81445 L 33.404297 156.39258 C 33.404297 156.39258 34.211861 151.6605 34.449219 150.27148 A 39.901025 7.323606 0 0 0 14.900391 156.56055 A 39.901025 7.323606 0 0 0 54.800781 163.88477 A 39.901025 7.323606 0 0 0 94.701172 156.56055 A 39.901025 7.323606 0 0 0 80.291016 150.92969 C 78.949507 154.91586 77.888672 157.89062 77.888672 157.89062 L 77.78125 162.11719 L 73.236328 155.55078 L 72.226562 160.85352 L 66.921875 151.00586 L 66.669922 156.56055 L 59.851562 150.24805 z "
       transform="scale(0.26458333)"
       id="path838" />
    <path
       style="fill:#000000;stroke-width:1"
       d="m 17.832798,42.463152 c 0.0048,-0.350998 -0.138121,-0.852058 -0.369218,-1.294022 -0.404409,-0.773418 -0.460308,-1.014688 -0.235092,-1.014688 0.433142,0 1.277668,2.105111 1.06591,2.656944 -0.176465,0.45986 -0.469699,0.238643 -0.4616,-0.348234 z m 0.787163,0.176583 c -0.23406,-1.249544 -0.255882,-1.795282 -0.0693,-1.733088 0.104448,0.03482 0.263267,0.31744 0.352932,0.628055 l 0.163027,0.564752 0.187344,-0.399938 c 0.25221,-0.538412 0.467837,-0.426266 0.615435,0.320087 0.135184,0.683575 -0.07644,1.13303 -0.342304,0.726984 -0.12215,-0.186559 -0.160313,-0.181649 -0.289309,0.03722 -0.222193,0.377001 -0.533833,0.304328 -0.617826,-0.144075 z m 1.988266,-0.86445 c 0.0538,-0.614119 0.221997,-1.667668 0.373761,-2.341218 0.697009,-3.093402 0.991148,-4.502834 1.229279,-5.890343 l 0.256761,-1.496056 -0.386329,-0.28142 c -0.427747,-0.311592 -0.390153,-0.634542 0.04666,-0.400769 0.443944,0.237591 0.47627,0.180825 0.396706,-0.696624 -0.08915,-0.983152 -0.35946,-1.567393 -1.008149,-2.178985 -0.58189,-0.548611 -1.082669,-0.685973 -2.961644,-0.812366 -1.445664,-0.09725 -1.486896,-0.09158 -1.567116,0.21518 -0.07781,0.297532 -0.0973,0.301563 -0.35044,0.07247 -0.291087,-0.26343 -1.167607,-0.232673 -2.693171,0.0945 -0.832988,0.178643 -1.83915,0.854721 -2.182554,1.466536 -0.28722,0.511719 -0.147129,0.605495 0.467026,0.312624 0.489625,-0.233485 1.067722,-0.192548 0.90894,0.06437 -0.04221,0.0683 -0.467738,0.266738 -0.945619,0.440983 -0.477881,0.174244 -0.868875,0.376123 -0.868875,0.448621 0,0.0725 0.09725,0.0945 0.216112,0.04888 0.118862,-0.04561 0.216113,-0.0051 0.216113,0.09005 0,0.09514 -0.123674,0.205319 -0.27483,0.244847 -0.248482,0.06498 -0.438377,0.430439 -0.443578,0.853681 -0.0011,0.09126 0.145657,0.131895 0.341332,0.09449 0.561242,-0.107288 0.595945,0.233111 0.04714,0.462415 -0.407045,0.170075 -0.510759,0.30362 -0.585083,0.753375 -0.171879,1.040086 -0.134481,1.203439 0.242686,1.06004 0.184907,-0.0703 0.422701,-0.07436 0.52843,-0.009 0.142046,0.08779 0.06367,0.197182 -0.300176,0.418999 -0.270827,0.165105 -0.541037,0.300433 -0.600468,0.300729 -0.05943,2.96e-4 -0.108056,0.162623 -0.108056,0.360726 0,0.415282 0.18754,0.44772 0.890462,0.15402 0.496574,-0.207481 0.957834,-0.10358 0.784591,0.176734 -0.04992,0.08077 -0.463437,0.261039 -0.918927,0.400593 -0.45549,0.139555 -0.839102,0.259143 -0.852471,0.265752 -0.01337,0.0066 -0.0708,0.197262 -0.127627,0.423673 -0.09989,0.398001 -0.08879,0.408465 0.33476,0.315439 0.687275,-0.150951 0.729986,0.184687 0.05714,0.448991 -0.39861,0.156578 -0.605651,0.338421 -0.667955,0.586662 -0.1197797,0.477239 -0.03485,0.533797 0.514177,0.342406 0.253593,-0.0884 0.651308,-0.160733 0.883811,-0.160733 0.696171,0 0.386443,0.3381 -0.53584,0.584923 -0.892797,0.238933 -0.960744,0.319867 -1.1418335,1.360089 l -0.1003267,0.5763 0.5220032,-0.559152 c 0.655339,-0.701979 0.855657,-0.555376 0.809899,0.59273 l -0.03311,0.830872 0.594249,-0.684356 c 0.543808,-0.626265 1.004056,-0.879699 1.004056,-0.552881 0,0.07231 -0.32978,0.526149 -0.732845,1.008525 -1.029081,1.231579 -1.346441,1.176091 -1.461425,-0.255511 l -0.03889,-0.484225 -0.5637062,0.874005 C 9.0412405,42.92936 8.6795904,43.032819 8.5035419,42.0944 8.3877063,41.476943 8.2550702,41.460408 8.0755464,42.04104 7.8699232,42.706087 7.6757582,42.576852 7.4340171,41.614042 7.3148343,41.139358 7.1753505,40.709859 7.1240531,40.6596 c -0.051297,-0.05026 -0.1377336,0.231923 -0.1920807,0.627074 -0.1022991,0.743803 -0.403688,1.324368 -0.5905262,1.137529 -0.096525,-0.09652 0.013931,-0.741039 0.3951609,-2.30578 0.1894376,-0.777537 0.4836698,-0.672902 0.8102691,0.28815 l 0.2815301,0.828431 0.1358408,-0.504262 c 0.1810662,-0.672147 0.5014034,-0.639515 0.7071756,0.07204 l 0.1666588,0.5763 0.092624,-0.5763 c 0.050943,-0.316965 0.2518871,-1.386722 0.4465428,-2.377237 0.1946555,-0.990516 0.4871377,-2.838277 0.6499597,-4.106137 0.360659,-2.80836 0.472774,-3.387692 0.85122,-4.398494 0.36428,-0.972969 1.021737,-1.789617 1.73281,-2.15238 1.043175,-0.532188 3.543192,-0.895038 5.812388,-0.843604 2.536765,0.0575 3.086559,0.276517 4.140428,1.649399 0.663116,0.863845 0.674488,0.896903 0.791977,2.302229 0.172149,2.05913 0.10071,3.561637 -0.231144,4.861377 -0.160123,0.62714 -0.445344,1.89362 -0.633825,2.814401 -0.18848,0.92078 -0.444282,1.915191 -0.568449,2.2098 -0.316069,0.749934 -0.302408,0.761285 0.412217,0.342486 1.00916,-0.591408 1.317966,-0.453511 0.923447,0.412364 -0.226222,0.496504 -0.119245,0.555333 0.522363,0.287251 0.531504,-0.222076 1.035725,-0.189441 0.883311,0.05717 -0.123772,0.200266 -1.816182,0.772493 -2.035643,0.688276 -0.159608,-0.06125 -0.168836,-0.168216 -0.04512,-0.523096 0.08553,-0.245356 0.118429,-0.483187 0.07311,-0.528511 -0.04532,-0.04532 -0.479909,0.249738 -0.965744,0.655692 -0.485836,0.405955 -0.950119,0.738099 -1.03174,0.738099 -0.09747,0 -0.11483,-0.383218 -0.05058,-1.116581 z m -4.746407,0.684356 c -0.04897,-0.07924 -0.04737,-0.211508 0.0036,-0.293924 0.06005,-0.09717 -0.03826,-0.117003 -0.279647,-0.05642 -0.333495,0.0837 -0.372259,0.05168 -0.372259,-0.30749 v -0.40092 l -0.352857,0.331492 c -0.471701,0.44314 -0.773085,0.296372 -0.889764,-0.433299 l -0.09519,-0.595286 -0.403486,0.648258 c -0.455024,0.731061 -0.645065,0.893716 -0.783148,0.670293 -0.111595,-0.180563 0.717721,-1.600488 1.198666,-2.052312 0.28244,-0.265339 0.352625,-0.280372 0.466712,-0.09997 0.07385,0.116785 0.135273,0.520704 0.136486,0.897597 l 0.0022,0.685259 0.597917,-0.433128 c 0.616916,-0.446892 1.073382,-0.569232 0.944107,-0.253035 -0.295956,0.723885 -0.299237,0.703371 0.09662,0.604019 0.424648,-0.106581 0.437671,-0.0668 0.226759,0.692656 -0.148506,0.534744 -0.324365,0.675027 -0.496686,0.396206 z m 1.584824,-3.848213 c -0.887516,-0.062 -1.172068,-0.153879 -0.996597,-0.321782 0.161431,-0.15447 1.631803,0.06513 1.841738,0.275069 0.08194,0.08194 0.08738,0.137291 0.0121,0.123008 -0.07528,-0.01428 -0.46104,-0.04862 -0.857246,-0.0763 z m -3.637893,-0.347074 c -0.664767,-0.191945 -0.608476,-0.475993 0.07204,-0.363511 0.297154,0.04912 0.686157,0.09002 0.86445,0.09089 0.191395,9.37e-4 0.324168,0.0901 0.324168,0.217698 0,0.246483 -0.518927,0.269091 -1.260656,0.05492 z m 6.447355,0.03392 c 0,-0.132798 0.593532,-0.335747 0.692492,-0.236788 0.03121,0.03121 0.01401,0.125885 -0.03823,0.210399 -0.114276,0.184902 -0.654262,0.206682 -0.654262,0.02639 z m -3.885461,-1.091868 c -0.222944,-0.268632 -0.48715,-0.281092 -0.880351,-0.04152 -0.254079,0.154808 -0.331905,0.135813 -0.554311,-0.135295 -0.176889,-0.215624 -0.305499,-0.268621 -0.40658,-0.16754 -0.09876,0.09876 -0.177604,0.0997 -0.237471,0.0028 -0.09388,-0.151909 0.27399,-0.60047 0.492457,-0.60047 0.06964,0 0.186244,0.106534 0.259112,0.236742 0.109138,0.195017 0.20908,0.210042 0.567064,0.08525 0.351574,-0.12256 0.516305,-0.101793 0.862483,0.108731 0.277011,0.16846 0.498719,0.215386 0.628714,0.133071 0.279799,-0.177173 0.812841,-0.162792 0.928941,0.02506 0.147589,0.238803 -0.08591,0.376605 -0.813986,0.480371 -0.505638,0.07207 -0.705625,0.04199 -0.846072,-0.127239 z m 3.597311,-1.662361 c 0,-0.07924 0.06483,-0.144075 0.144075,-0.144075 0.07924,0 0.144075,0.06483 0.144075,0.144075 0,0.07924 -0.06483,0.144075 -0.144075,0.144075 -0.07924,0 -0.144075,-0.06483 -0.144075,-0.144075 z m -3.731344,-0.198514 c -0.129085,-0.155539 -0.10459,-0.214248 0.11315,-0.271188 0.224837,-0.0588 0.297418,-0.254908 0.380106,-1.027037 0.07391,-0.690194 0.05136,-1.015622 -0.08146,-1.175668 -0.275455,-0.331904 0.0091,-0.54364 0.486628,-0.362087 0.38987,0.148228 0.504875,0.376724 0.234904,0.466714 -0.0838,0.02793 -0.162432,0.599209 -0.180094,1.308448 -0.03125,1.255018 -0.03251,1.258867 -0.409913,1.259099 -0.208211,1.29e-4 -0.452704,-0.0891 -0.543318,-0.198281 z m 2.724405,-0.629917 c 0.0025,-1.316802 0.14457,-1.916119 0.49164,-2.074254 0.44564,-0.203048 1.033476,0.06717 1.310188,0.602274 0.211984,0.409932 0.21243,0.479856 0.0051,0.796315 -0.125021,0.190807 -0.404784,0.385783 -0.621695,0.43328 -0.710394,0.155557 -0.754565,0.192674 -0.754565,0.63407 0,0.292169 -0.07154,0.436746 -0.216113,0.436746 -0.167227,0 -0.215754,-0.187393 -0.214527,-0.828431 z m 1.352595,-0.945513 c 0.128826,-0.212122 0.09492,-0.313422 -0.180569,-0.539509 -0.424477,-0.348355 -0.549718,-0.273454 -0.6253,0.373961 -0.05521,0.472923 -0.03255,0.509146 0.293718,0.469579 0.19445,-0.02358 0.424918,-0.160395 0.512151,-0.304031 z m -6.120535,1.099133 c -0.439538,-0.669749 -0.615519,-0.724408 -0.828356,-0.257283 -0.09346,0.205119 -0.238936,0.329137 -0.324244,0.276415 -0.205026,-0.126714 -0.02396,-2.257607 0.204165,-2.402739 0.26968,-0.171569 0.930084,-0.127729 1.469205,0.09753 0.654335,0.273398 0.676301,0.76957 0.05713,1.290565 l -0.442502,0.37234 0.298427,0.419101 c 0.164134,0.230506 0.298426,0.490136 0.298426,0.576955 0,0.336824 -0.400255,0.133004 -0.732255,-0.372884 z m 0.423205,-1.403666 c 0.312141,-0.312142 0.06174,-0.514872 -0.63594,-0.514872 -0.657084,0 -0.752925,0.113948 -0.547063,0.650416 0.07061,0.18401 0.199207,0.220472 0.538352,0.152643 0.245069,-0.04901 0.535162,-0.178698 0.644651,-0.288187 z m 2.9024,1.790327 c 0,-0.07924 0.06483,-0.144075 0.144075,-0.144075 0.07924,0 0.144075,0.06483 0.144075,0.144075 0,0.07924 -0.06483,0.144075 -0.144075,0.144075 -0.07924,0 -0.144075,-0.06483 -0.144075,-0.144075 z m -2.427663,-0.136871 c 0.0317,-0.09509 0.104634,-0.168027 0.162084,-0.162084 0.172271,0.01782 0.138908,0.215433 -0.04683,0.277344 -0.09509,0.0317 -0.146956,-0.02017 -0.115259,-0.11526 z m 2.571738,-5.622428 c 0,-0.169146 0.760367,-0.58 1.073407,-0.58 0.400962,0 0.23486,0.27944 -0.29859,0.502329 -0.608461,0.254232 -0.774817,0.270908 -0.774817,0.07767 z m 2.049637,-0.317575 c 0.07896,-0.23688 0.509199,-0.489038 0.62937,-0.368867 0.137068,0.137068 -0.217433,0.538667 -0.475492,0.538667 -0.115763,0 -0.185008,-0.07641 -0.153878,-0.1698 z"
       id="path834"
       inkscape:connector-curvature="0" />
    <rect
       inkscape:export-ydpi="67.488693"
       inkscape:export-xdpi="67.488693"
       inkscape:export-filename="/home/larzuk/hotbucket/git/PROJECTS/PRJ_larzukModernDefense_0320/code/epidemicJsToy/img/shadow.png"
       y="26.014214"
       x="1.3363476"
       height="18.441597"
       width="26.192413"
       id="rect832"
       style="opacity:0.45400002;fill:none;fill-opacity:1;stroke:none;stroke-width:0.5;stroke-linecap:round;stroke-linejoin:round;stroke-miterlimit:4;stroke-dasharray:none;stroke-dashoffset:151.18110657;stroke-opacity:1;paint-order:markers fill stroke" />
  </g>
</svg>
